<svg width="146" height="87" viewBox="0 0 146 87" fill="none" xmlns="http://www.w3.org/2000/svg">
<g id="sun-energy/bro">
<g id="Plants">
<path id="Vector" d="M19.0073 80.8253C19.3087 80.9074 19.6201 80.9431 19.9315 80.9312C19.9315 80.9312 19.7914 80.4881 19.7789 80.4622C19.6346 80.1509 19.1809 79.6365 18.8108 79.6883C18.7494 79.6985 18.6908 79.7219 18.6388 79.7571C18.5868 79.7922 18.5425 79.8384 18.509 79.8925C18.4754 79.9465 18.4533 80.0073 18.4441 80.0709C18.4348 80.1344 18.4387 80.1993 18.4553 80.2612C18.5016 80.3913 18.5751 80.5093 18.6705 80.6069C18.7659 80.7044 18.8809 80.779 19.0073 80.8253Z" fill="#263238"/>
<path id="Vector_2" d="M23.4484 86.2012C23.6905 86.3688 23.9565 86.4965 24.2366 86.5795C24.2095 86.7135 24.1823 86.8453 24.1488 86.975C24.1258 87.0615 24.1091 87.1458 24.0798 87.2323C24.0506 87.3187 24.0275 87.4009 24.0004 87.4852C23.9439 87.6451 23.8875 87.8094 23.8289 87.9629C23.8017 88.0385 23.7746 88.1077 23.7474 88.179H23.9669C23.9836 88.1337 24.0004 88.0883 24.0171 88.0385C24.0735 87.8786 24.1258 87.7186 24.1823 87.5457L24.2575 87.2906C24.2826 87.2063 24.3015 87.1134 24.3224 87.0226C24.3705 86.8064 24.4102 86.6011 24.4457 86.3741C24.7217 86.492 25.0137 86.565 25.3114 86.5903C25.4457 86.5895 25.5783 86.5585 25.7 86.4995C25.8216 86.4406 25.9294 86.355 26.016 86.2487C26.0516 86.1961 26.0761 86.1363 26.0879 86.0733C26.0998 86.0103 26.0987 85.9453 26.0847 85.8828C26.0707 85.8202 26.0441 85.7614 26.0067 85.7101C25.9693 85.6588 25.9219 85.6162 25.8675 85.5851C25.5351 85.41 24.9392 85.7343 24.7029 85.9785C24.6883 85.9937 24.5377 86.1947 24.4583 86.2963C24.4771 86.1666 24.498 86.0347 24.5126 85.9029C24.5586 85.5203 24.5942 85.1312 24.6318 84.7443C24.6318 84.6254 24.6548 84.5065 24.6674 84.3876C24.9534 84.5059 25.2551 84.5788 25.5623 84.6038C25.6966 84.603 25.8292 84.572 25.9509 84.513C26.0725 84.4541 26.1803 84.3685 26.2669 84.2622C26.3025 84.2096 26.327 84.1499 26.3389 84.0868C26.3507 84.0238 26.3496 83.9588 26.3356 83.8963C26.3216 83.8337 26.295 83.7749 26.2576 83.7236C26.2202 83.6723 26.1728 83.6297 26.1184 83.5986C25.786 83.4235 25.1901 83.7478 24.9538 83.992C24.9371 84.0093 24.7196 84.2903 24.6695 84.3638C24.6945 84.1023 24.7238 83.8429 24.7635 83.5878C24.8118 83.2441 24.8817 82.904 24.9726 82.5697C25.2608 82.6881 25.5646 82.761 25.8738 82.7859C26.0079 82.7853 26.1403 82.7545 26.2616 82.6955C26.383 82.6365 26.4904 82.5508 26.5763 82.4443C26.6122 82.392 26.637 82.3324 26.649 82.2694C26.661 82.2065 26.66 82.1416 26.6459 82.0791C26.6319 82.0166 26.6052 81.9579 26.5676 81.9068C26.53 81.8558 26.4824 81.8135 26.4279 81.7829C26.0954 81.6056 25.5016 81.932 25.2654 82.1763C25.2465 82.1936 25.0144 82.4962 24.9747 82.5524C24.9806 82.5332 24.9855 82.5138 24.9894 82.4941C25.0914 82.1612 25.2223 81.8385 25.3804 81.53C25.4661 81.3571 25.556 81.1971 25.648 81.0458C25.9157 81.1926 26.2033 81.2968 26.5011 81.3549C26.6346 81.37 26.7698 81.3546 26.8969 81.3098C27.0241 81.2649 27.1402 81.1918 27.2371 81.0955C27.278 81.0474 27.3087 80.9909 27.3271 80.9298C27.3456 80.8686 27.3513 80.8041 27.344 80.7404C27.3367 80.6768 27.3165 80.6155 27.2848 80.5605C27.253 80.5054 27.2104 80.4579 27.1597 80.4211C26.8482 80.2049 26.223 80.4643 25.9616 80.6783C25.947 80.6913 25.8153 80.8253 25.7212 80.9247L25.8487 80.7216C26.0034 80.4773 26.1623 80.2655 26.3024 80.0731C26.384 79.9672 26.4593 79.8742 26.5303 79.7856C26.8319 79.7901 27.1324 79.7463 27.4211 79.6559C27.5462 79.6053 27.6591 79.527 27.752 79.4266C27.8448 79.3262 27.9152 79.206 27.9584 79.0744C27.9734 79.0123 27.9755 78.9476 27.9647 78.8846C27.9539 78.8216 27.9304 78.7616 27.8956 78.7086C27.8609 78.6556 27.8158 78.6107 27.7632 78.5769C27.7106 78.5431 27.6518 78.5211 27.5904 78.5124C27.2182 78.4713 26.7771 78.9966 26.6412 79.3122C26.6286 79.3403 26.4927 79.7877 26.5011 79.7877C26.4321 79.8699 26.3568 79.9585 26.2773 80.0579C26.1331 80.2417 25.97 80.4514 25.809 80.6935C25.6315 80.9506 25.4688 81.2184 25.3218 81.4954C25.1534 81.8039 25.0134 82.1282 24.9036 82.4638C24.9036 82.4638 24.9036 82.4638 24.9036 82.4746C24.9036 82.3622 24.9036 82.0423 24.9036 82.0207C24.8618 81.6791 24.5837 81.0458 24.2157 80.9745C24.1543 80.9647 24.0916 80.9684 24.0317 80.9854C23.9718 81.0024 23.9161 81.0323 23.8681 81.0731C23.8201 81.1139 23.7811 81.1647 23.7534 81.2222C23.7257 81.2797 23.7102 81.3426 23.7076 81.4068C23.7128 81.5454 23.747 81.6812 23.808 81.8048C23.8691 81.9283 23.9554 82.0367 24.061 82.1223C24.3196 82.2957 24.6014 82.429 24.8974 82.5178C24.7926 82.8612 24.7102 83.2115 24.6506 83.5662C24.6151 83.7824 24.5858 83.9812 24.5586 84.1931C24.5586 84.0936 24.5586 84.0072 24.5586 83.9942C24.5147 83.6527 24.2387 83.0193 23.8707 82.948C23.8092 82.9382 23.7464 82.9419 23.6864 82.9589C23.6264 82.9759 23.5705 83.0057 23.5224 83.0465C23.4743 83.0873 23.435 83.1381 23.4071 83.1956C23.3792 83.2531 23.3634 83.316 23.3606 83.3803C23.3662 83.5191 23.4009 83.6549 23.4623 83.7784C23.5237 83.9019 23.6102 84.0102 23.716 84.0958C23.966 84.2663 24.2395 84.3968 24.5273 84.4827C24.5273 84.5627 24.5085 84.6427 24.498 84.7248C24.4541 85.1117 24.4102 85.4987 24.3579 85.877C24.3391 86.011 24.3161 86.1407 24.2931 86.2704C24.2931 86.1839 24.2931 86.1104 24.2931 86.0996C24.2513 85.7581 23.9732 85.1247 23.6073 85.0534C23.5458 85.0436 23.483 85.0473 23.423 85.0643C23.3629 85.0813 23.307 85.1111 23.2589 85.1519C23.2108 85.1927 23.1715 85.2435 23.1436 85.301C23.1158 85.3585 23.0999 85.4214 23.0971 85.4857C23.1023 85.6241 23.1363 85.7597 23.1969 85.8832C23.2576 86.0067 23.3434 86.1152 23.4484 86.2012Z" fill="#263238"/>
<path id="Vector_3" d="M19.2353 82.7902C19.544 82.7881 19.8506 82.7378 20.1448 82.6411C20.2409 82.9874 20.3589 83.3268 20.4982 83.657C20.5797 83.8494 20.6655 84.0396 20.7554 84.232C20.7031 84.1499 20.655 84.0785 20.6466 84.0699C20.4376 83.8083 19.8584 83.4365 19.5134 83.5879C19.4573 83.6149 19.4073 83.6537 19.3667 83.7019C19.326 83.75 19.2955 83.8065 19.2772 83.8676C19.2589 83.9286 19.2531 83.993 19.2603 84.0565C19.2675 84.12 19.2875 84.1813 19.3189 84.2363C19.3976 84.3487 19.4989 84.4421 19.6158 84.51C19.7328 84.5779 19.8626 84.6188 19.9964 84.6297C20.2964 84.6294 20.5946 84.582 20.8808 84.4892C20.9143 84.5627 20.9498 84.6362 20.9854 84.7054C21.1547 85.0534 21.3241 85.4014 21.4809 85.7473C21.5374 85.8705 21.5875 85.9915 21.6377 86.1126C21.5917 86.0413 21.5499 85.9829 21.5436 85.9742C21.3345 85.7127 20.7554 85.3409 20.4104 85.4922C20.3541 85.519 20.3039 85.5577 20.263 85.6058C20.2221 85.6539 20.1915 85.7104 20.1732 85.7716C20.1548 85.8328 20.1492 85.8973 20.1565 85.9608C20.1639 86.0244 20.1841 86.0857 20.2159 86.1407C20.2941 86.2537 20.3953 86.3476 20.5123 86.416C20.6293 86.4843 20.7594 86.5254 20.8934 86.5363C21.1848 86.5373 21.4746 86.4921 21.7527 86.4022C21.8008 86.5298 21.851 86.6552 21.8907 86.7805C21.9179 86.867 21.9493 86.947 21.9702 87.0356L22.0392 87.2928C22.0789 87.4571 22.1186 87.6279 22.1521 87.7878C22.1772 87.9002 22.1981 88.004 22.219 88.1164C22.1646 87.9953 22.0538 87.7576 22.0434 87.7403C21.8656 87.4485 21.3575 86.9924 20.9979 87.0918C20.9381 87.1093 20.8825 87.1396 20.8347 87.1808C20.787 87.2219 20.7482 87.273 20.7207 87.3307C20.6933 87.3884 20.678 87.4514 20.6757 87.5156C20.6733 87.5799 20.6841 87.6439 20.7073 87.7035C20.7628 87.8179 20.8407 87.9191 20.9361 88.0006C21.0315 88.0821 21.1423 88.1421 21.2614 88.1769H22.4469C22.4469 88.151 22.4344 88.125 22.4302 88.0969C22.605 88.025 22.7754 87.942 22.9403 87.8484C23.072 87.9775 23.2196 88.088 23.3794 88.1769H23.7265C23.7453 88.0429 23.7662 87.8786 23.7662 87.8613C23.7633 87.5574 23.684 87.2594 23.5362 86.9967C23.5405 86.963 23.5405 86.9288 23.5362 86.8951C23.5288 86.8314 23.5084 86.77 23.4764 86.715C23.4445 86.66 23.4016 86.6125 23.3507 86.5758C23.2998 86.5391 23.2419 86.5139 23.181 86.5019C23.12 86.4898 23.0572 86.4912 22.9968 86.506C22.6351 86.6054 22.4072 87.2604 22.3883 87.6063C22.3883 87.6257 22.4009 87.8483 22.4113 87.9867C22.3925 87.9067 22.3758 87.8267 22.357 87.7446C22.3194 87.5781 22.2754 87.416 22.2315 87.2388L22.1563 86.9837C22.1333 86.8973 22.0977 86.8108 22.0705 86.7222C21.9974 86.5211 21.9158 86.3201 21.8301 86.1191C22.1233 86.0572 22.4055 85.9485 22.6664 85.797C22.7781 85.7201 22.8723 85.6189 22.9423 85.5006C23.0124 85.3823 23.0566 85.2496 23.0721 85.1118C23.0734 85.0476 23.0617 84.9838 23.0378 84.9245C23.0139 84.8652 22.9782 84.8118 22.9331 84.7676C22.8881 84.7234 22.8345 84.6895 22.776 84.668C22.7174 84.6465 22.6552 84.6379 22.5933 84.6427C22.2232 84.6859 21.9012 85.2912 21.8343 85.6349C21.8343 85.6565 21.8071 85.9029 21.7966 86.0391C21.7444 85.9202 21.6921 85.7992 21.6356 85.6803C21.4684 85.3344 21.2906 84.9907 21.1129 84.6449L20.954 84.3293C21.2562 84.2641 21.5472 84.1526 21.8175 83.9986C21.9289 83.9213 22.0228 83.8201 22.0929 83.7018C22.1629 83.5835 22.2073 83.451 22.2232 83.3133C22.2245 83.2492 22.2129 83.1855 22.1889 83.1263C22.165 83.0672 22.1293 83.0138 22.0842 82.9698C22.039 82.9258 21.9855 82.8921 21.9269 82.8708C21.8684 82.8496 21.8062 82.8413 21.7444 82.8464C21.3743 82.8875 21.0523 83.4949 20.9833 83.8364C20.9833 83.8624 20.9477 84.219 20.9435 84.3098C20.8265 84.0764 20.7135 83.8429 20.609 83.6095C20.4669 83.2939 20.3454 82.969 20.2452 82.6367C20.5484 82.5706 20.8407 82.4592 21.1129 82.306C21.2245 82.2284 21.3185 82.1269 21.3885 82.0082C21.4585 81.8896 21.5029 81.7567 21.5185 81.6186C21.5199 81.5545 21.5082 81.4908 21.4843 81.4316C21.4604 81.3725 21.4247 81.3192 21.3795 81.2752C21.3344 81.2311 21.2808 81.1974 21.2223 81.1762C21.1638 81.1549 21.1016 81.1466 21.0397 81.1517C20.6696 81.1928 20.3476 81.8002 20.2807 82.1417C20.2807 82.1677 20.241 82.5524 20.2389 82.6216C20.2389 82.6043 20.2264 82.5849 20.2201 82.5654C20.1232 82.2299 20.0546 81.8864 20.0152 81.5387C19.9943 81.3484 19.9838 81.1625 19.9796 80.9831C20.2811 80.9537 20.5765 80.8771 20.8557 80.7562C20.9749 80.6922 21.0793 80.6022 21.1616 80.4925C21.2439 80.3828 21.3022 80.2559 21.3325 80.1207C21.3406 80.0576 21.3361 79.9935 21.3191 79.9324C21.3021 79.8712 21.273 79.8144 21.2338 79.7655C21.1945 79.7165 21.1458 79.6765 21.0908 79.648C21.0358 79.6195 20.9757 79.603 20.9143 79.5997C20.54 79.5997 20.1553 80.1704 20.0528 80.4989C20.0528 80.5162 20.0089 80.7043 19.9838 80.8426C19.9838 80.7605 19.9838 80.6762 19.9838 80.5984C19.9838 80.3066 20.0026 80.0407 20.0194 79.8029C20.0319 79.6689 20.0445 79.5478 20.057 79.4333C20.3107 79.2649 20.5378 79.0571 20.7303 78.8172C20.8072 78.7035 20.8594 78.5739 20.8833 78.4373C20.9071 78.3007 20.902 78.1604 20.8683 78.0261C20.8474 77.9657 20.8145 77.9105 20.7717 77.8641C20.7289 77.8176 20.6772 77.781 20.6198 77.7566C20.5625 77.7321 20.5008 77.7204 20.4388 77.7221C20.3768 77.7239 20.3158 77.739 20.2598 77.7667C19.9274 77.9439 19.8417 78.6313 19.896 78.975C19.896 79.0053 20.0256 79.4549 20.0319 79.4506C20.0173 79.5608 20.0026 79.6775 19.9901 79.8051C19.9671 80.0428 19.9441 80.3087 19.9357 80.6027C19.9261 80.9185 19.9338 81.2346 19.9587 81.5495C19.9851 81.902 20.0418 82.2514 20.1281 82.5935V82.6065C20.0696 82.5114 19.896 82.2498 19.8814 82.2304C19.6723 81.971 19.0931 81.5992 18.7481 81.7505C18.6918 81.7772 18.6416 81.8159 18.6007 81.8641C18.5599 81.9122 18.5293 81.9687 18.5109 82.0299C18.4926 82.0911 18.4869 82.1555 18.4943 82.2191C18.5016 82.2827 18.5219 82.344 18.5537 82.399C18.6328 82.5116 18.7349 82.605 18.8526 82.6725C18.9704 82.7401 19.101 82.7803 19.2353 82.7902Z" fill="#263238"/>
<path id="Vector_4" d="M25.6397 80.9745C25.6397 80.9745 25.7589 80.5249 25.763 80.4946C25.809 80.1531 25.7024 79.4657 25.3658 79.2971C25.3092 79.2709 25.2479 79.2574 25.1859 79.2574C25.1239 79.2573 25.0626 79.2708 25.006 79.2969C24.9493 79.323 24.8987 79.3612 24.8573 79.4089C24.8159 79.4566 24.7847 79.5128 24.7657 79.5738C24.7353 79.709 24.7338 79.8494 24.7612 79.9853C24.7887 80.1212 24.8444 80.2493 24.9246 80.3606C25.1325 80.6004 25.3734 80.8073 25.6397 80.9745Z" fill="#263238"/>
<path id="Vector_5" d="M12.488 83.657C12.6735 83.7069 12.8651 83.7288 13.0567 83.7218C13.0567 83.7218 12.971 83.4495 12.9626 83.4322C12.8748 83.2419 12.5946 82.9242 12.3667 82.9566C12.3297 82.9638 12.2946 82.9789 12.2635 83.001C12.2325 83.0231 12.2063 83.0517 12.1866 83.0849C12.1669 83.118 12.1542 83.1551 12.1492 83.1937C12.1442 83.2323 12.1471 83.2716 12.1576 83.309C12.1857 83.3879 12.2296 83.4597 12.2866 83.5197C12.3435 83.5797 12.4122 83.6265 12.488 83.657Z" fill="#263238"/>
<path id="Vector_6" d="M15.2061 86.9621C15.3553 87.0651 15.5189 87.1438 15.6912 87.1955C15.6745 87.2777 15.6578 87.3598 15.6369 87.4376C15.6159 87.5155 15.6118 87.5436 15.595 87.5954C15.5783 87.6473 15.5616 87.7014 15.5469 87.7511C15.5114 87.8505 15.4759 87.9521 15.4403 88.0451L15.3901 88.1769H15.526L15.5574 88.0904C15.5909 87.9932 15.6222 87.8937 15.6578 87.7878C15.6724 87.7359 15.687 87.6841 15.7038 87.63C15.7205 87.576 15.7309 87.5219 15.7435 87.4657C15.7749 87.3382 15.7979 87.2064 15.8188 87.0723C15.989 87.1431 16.1689 87.1861 16.3519 87.1999C16.435 87.1988 16.5168 87.1789 16.5916 87.1416C16.6664 87.1042 16.7323 87.0503 16.7847 86.9837C16.8068 86.9513 16.822 86.9145 16.8293 86.8756C16.8367 86.8367 16.836 86.7967 16.8273 86.7581C16.8186 86.7196 16.8021 86.6833 16.7789 86.6518C16.7558 86.6202 16.7264 86.5941 16.6928 86.5752C16.4837 86.4671 16.124 86.6681 15.9777 86.8173L15.8271 87.0118C15.8397 86.9318 15.8522 86.8519 15.8606 86.7719C15.8898 86.5363 15.9108 86.2963 15.9338 86.0585C15.9338 85.9851 15.9484 85.9116 15.9547 85.8424C16.1313 85.9144 16.3174 85.9588 16.5067 85.9742C16.5897 85.9732 16.6715 85.9533 16.7463 85.916C16.8211 85.8786 16.8871 85.8247 16.9395 85.7581C16.9615 85.7259 16.9767 85.6892 16.984 85.6505C16.9913 85.6118 16.9906 85.5719 16.9819 85.5335C16.9732 85.4951 16.9567 85.459 16.9336 85.4277C16.9104 85.3964 16.881 85.3705 16.8475 85.3517C16.6384 85.2436 16.2788 85.4425 16.1324 85.5938C16.1324 85.6046 15.9881 85.7754 15.9568 85.8208C15.9735 85.6608 15.9902 85.5009 16.0153 85.3452C16.0454 85.1334 16.0895 84.924 16.147 84.7184C16.3245 84.7906 16.5111 84.8357 16.7011 84.8524C16.7842 84.8513 16.866 84.8314 16.9408 84.7941C17.0156 84.7567 17.0815 84.7028 17.1339 84.6362C17.156 84.604 17.1711 84.5673 17.1785 84.5286C17.1858 84.4899 17.1851 84.45 17.1764 84.4116C17.1677 84.3732 17.1512 84.3372 17.128 84.3058C17.1048 84.2745 17.0755 84.2486 17.0419 84.2298C16.8328 84.1196 16.4732 84.3206 16.3268 84.4698C16.3164 84.4827 16.1721 84.6665 16.1491 84.7032C16.1499 84.691 16.1499 84.6787 16.1491 84.6665C16.2129 84.4617 16.2933 84.2628 16.3896 84.072C16.4418 83.9683 16.4983 83.8689 16.5548 83.7759C16.7194 83.8663 16.8963 83.9305 17.0796 83.9661C17.1616 83.975 17.2445 83.9653 17.3225 83.9377C17.4005 83.9101 17.4717 83.8652 17.5312 83.8062C17.5563 83.7765 17.5751 83.7417 17.5864 83.7041C17.5977 83.6664 17.6012 83.6267 17.5966 83.5876C17.5921 83.5484 17.5796 83.5107 17.5601 83.4769C17.5405 83.443 17.5143 83.4138 17.4831 83.3911C17.2928 83.2593 16.9081 83.4171 16.7471 83.5511C16.7471 83.5511 16.6572 83.6397 16.6008 83.7024C16.6258 83.6592 16.6509 83.6159 16.6781 83.577C16.7743 83.4257 16.8705 83.296 16.9562 83.1815L17.0963 83.0042C17.2818 83.0065 17.4665 82.9795 17.6441 82.9242C17.7212 82.8932 17.7909 82.8453 17.8483 82.7837C17.9057 82.7221 17.9495 82.6484 17.9766 82.5676C17.9857 82.5292 17.9869 82.4893 17.9802 82.4505C17.9734 82.4116 17.9588 82.3747 17.9373 82.342C17.9158 82.3094 17.8879 82.2818 17.8554 82.2611C17.8229 82.2404 17.7865 82.2269 17.7486 82.2217C17.5207 82.1958 17.2489 82.5179 17.1653 82.7124C17.1653 82.7297 17.0733 83.0042 17.0796 83.0042C17.0357 83.0539 16.9897 83.1101 16.9416 83.1707C16.8517 83.2852 16.7513 83.4128 16.653 83.5619C16.5437 83.7197 16.4438 83.8843 16.354 84.0548C16.2513 84.2446 16.1652 84.4435 16.0968 84.6492C16.0968 84.58 16.0968 84.3855 16.0968 84.3703C16.0718 84.1542 15.9003 83.7694 15.6787 83.7219C15.6411 83.7161 15.6027 83.7185 15.566 83.7289C15.5293 83.7393 15.4952 83.7575 15.4657 83.7823C15.4362 83.8071 15.412 83.838 15.3946 83.873C15.3773 83.908 15.3672 83.9463 15.365 83.9856C15.3684 84.0688 15.3888 84.1504 15.4248 84.2249C15.4608 84.2994 15.5117 84.3652 15.5741 84.4179C15.7325 84.5255 15.906 84.6071 16.0885 84.66C16.0247 84.8726 15.9745 85.0892 15.9379 85.3085C15.9149 85.4338 15.8982 85.5635 15.8815 85.6932C15.8815 85.6327 15.8815 85.5787 15.8815 85.5722C15.8543 85.356 15.6849 84.9713 15.4633 84.9237C15.4256 84.9172 15.387 84.9191 15.35 84.9293C15.3131 84.9394 15.2786 84.9575 15.249 84.9825C15.2193 85.0074 15.1951 85.0386 15.178 85.0739C15.1609 85.1092 15.1512 85.1479 15.1497 85.1874C15.153 85.2707 15.1734 85.3522 15.2094 85.4267C15.2455 85.5012 15.2964 85.567 15.3588 85.6197C15.5129 85.7249 15.6813 85.8058 15.8585 85.8597C15.8585 85.9094 15.8459 85.9591 15.8418 86.0088C15.8125 86.2466 15.7874 86.4844 15.7539 86.7157C15.7414 86.7978 15.7289 86.8778 15.7142 86.9599C15.7142 86.9059 15.7142 86.8605 15.7142 86.854C15.687 86.6379 15.5156 86.2531 15.296 86.2055C15.2584 86.1998 15.2201 86.2022 15.1834 86.2126C15.1467 86.223 15.1125 86.2412 15.083 86.266C15.0535 86.2908 15.0293 86.3217 15.012 86.3567C14.9947 86.3917 14.9846 86.43 14.9824 86.4693C14.9787 86.5639 14.9971 86.6582 15.036 86.7439C15.0749 86.8297 15.1333 86.9046 15.2061 86.9621Z" fill="#263238"/>
<path id="Vector_7" d="M12.6176 84.8632C12.807 84.8621 12.9952 84.8315 13.1758 84.7724C13.2313 84.9854 13.3012 85.1941 13.3849 85.3971C13.433 85.516 13.4874 85.6327 13.5418 85.7516L13.4748 85.6521C13.341 85.49 12.9898 85.263 12.7786 85.356C12.744 85.3724 12.7132 85.396 12.688 85.4255C12.6628 85.4549 12.6439 85.4895 12.6325 85.527C12.6211 85.5645 12.6174 85.604 12.6216 85.6431C12.6259 85.6821 12.6381 85.7198 12.6573 85.7537C12.7057 85.8232 12.7682 85.8809 12.8404 85.9227C12.9127 85.9646 12.9929 85.9895 13.0755 85.9958C13.2598 85.9968 13.4432 85.9683 13.6191 85.9115L13.6818 86.0455C13.7864 86.2617 13.8909 86.4779 13.9892 86.694C14.0227 86.7697 14.054 86.8453 14.0854 86.9102L14.0268 86.8237C13.893 86.6638 13.5418 86.4368 13.3306 86.5297C13.296 86.5461 13.2651 86.5698 13.24 86.5992C13.2148 86.6287 13.1959 86.6633 13.1845 86.7008C13.1731 86.7382 13.1694 86.7778 13.1736 86.8168C13.1779 86.8559 13.1901 86.8936 13.2093 86.9275C13.2577 86.997 13.3202 87.0547 13.3924 87.0965C13.4647 87.1383 13.5449 87.1633 13.6275 87.1696C13.8069 87.1717 13.9855 87.144 14.1565 87.0874C14.1878 87.1653 14.2171 87.2431 14.2422 87.3209C14.2673 87.3987 14.2777 87.4225 14.2903 87.4765L14.3342 87.6365C14.3572 87.7359 14.3823 87.8526 14.4032 87.9413C14.4241 88.0299 14.4304 88.0753 14.4429 88.1423C14.4116 88.0688 14.3426 87.9261 14.3363 87.911C14.2276 87.7316 13.9181 87.4506 13.6902 87.5089C13.6536 87.5199 13.6197 87.5388 13.5906 87.5642C13.5615 87.5897 13.538 87.6211 13.5214 87.6566C13.5048 87.692 13.4957 87.7307 13.4945 87.7701C13.4933 87.8094 13.5002 87.8486 13.5146 87.8851C13.5477 87.9558 13.5951 88.0184 13.6535 88.0687C13.7119 88.119 13.78 88.1559 13.8533 88.1769H14.583C14.582 88.161 14.582 88.1452 14.583 88.1293C14.6102 88.1163 14.7607 88.0537 14.8966 87.9758C14.9772 88.0554 15.0679 88.123 15.1664 88.1769H15.3755C15.388 88.0947 15.4005 87.9931 15.4005 87.9823C15.3981 87.7961 15.3491 87.6137 15.2584 87.4527C15.2605 87.4319 15.2605 87.4109 15.2584 87.3901C15.2535 87.351 15.2408 87.3134 15.221 87.2797C15.2012 87.246 15.1747 87.217 15.1434 87.1946C15.112 87.1722 15.0765 87.1568 15.039 87.1495C15.0015 87.1422 14.963 87.1432 14.9259 87.1523C14.7022 87.2128 14.5621 87.6149 14.5516 87.8267C14.5516 87.8397 14.5516 87.9758 14.5663 88.0623C14.5537 88.0126 14.5433 87.9629 14.5328 87.911L14.4555 87.6019C14.4387 87.55 14.4241 87.4981 14.4095 87.4441C14.3948 87.3901 14.3739 87.3382 14.3551 87.2841C14.3112 87.1609 14.261 87.0356 14.2067 86.9123C14.3866 86.8759 14.5596 86.8095 14.7189 86.7156C14.7875 86.668 14.8454 86.6058 14.8886 86.5331C14.9319 86.4603 14.9596 86.3789 14.9698 86.2941C14.9708 86.2546 14.9638 86.2153 14.9491 86.1788C14.9344 86.1422 14.9124 86.1093 14.8846 86.0822C14.8568 86.0551 14.8237 86.0343 14.7876 86.0213C14.7515 86.0083 14.7131 86.0033 14.675 86.0066C14.4471 86.0304 14.2568 86.4065 14.2067 86.614C14.2067 86.627 14.192 86.7805 14.1857 86.8648C14.1523 86.7913 14.1209 86.7156 14.0854 86.6486C13.9829 86.4325 13.8763 86.2163 13.7655 86.0131C13.732 85.9483 13.6986 85.8834 13.6672 85.8186C13.853 85.7785 14.032 85.71 14.1983 85.6154C14.2669 85.5681 14.3248 85.5059 14.3678 85.4331C14.4107 85.3603 14.4378 85.2786 14.4471 85.1939C14.4489 85.1546 14.4427 85.1153 14.429 85.0787C14.4152 85.042 14.3941 85.0088 14.3671 84.9811C14.3401 84.9533 14.3078 84.9318 14.2722 84.9178C14.2366 84.9038 14.1986 84.8977 14.1607 84.8999C13.9327 84.9258 13.7425 85.302 13.6944 85.5095C13.6944 85.5246 13.6714 85.7451 13.6693 85.7991C13.5961 85.6565 13.5271 85.5138 13.4602 85.3668C13.3719 85.1767 13.2951 84.981 13.2302 84.781C13.4178 84.7383 13.5977 84.6654 13.7634 84.5649C13.8326 84.518 13.891 84.4559 13.9344 84.3831C13.9778 84.3102 14.005 84.2284 14.0143 84.1433C14.0153 84.1038 14.0083 84.0645 13.9936 84.028C13.9789 83.9915 13.9569 83.9586 13.9291 83.9314C13.9013 83.9043 13.8682 83.8835 13.8321 83.8705C13.796 83.8575 13.7576 83.8525 13.7195 83.8559C13.4916 83.8818 13.3013 84.2579 13.2511 84.4654C13.2511 84.4806 13.2281 84.7183 13.2281 84.7616L13.2156 84.7248C13.1594 84.5182 13.1203 84.3071 13.0985 84.0936C13.0859 83.9747 13.0818 83.8623 13.0776 83.7521C13.263 83.7324 13.4447 83.6851 13.617 83.6116C13.6904 83.5723 13.7546 83.5169 13.8051 83.4493C13.8557 83.3818 13.8914 83.3036 13.9097 83.2203C13.9151 83.1812 13.9123 83.1414 13.9017 83.1034C13.8911 83.0654 13.8729 83.0302 13.8482 83C13.8236 82.9698 13.793 82.9453 13.7586 82.9282C13.7241 82.911 13.6866 82.9016 13.6484 82.9004C13.4184 82.9004 13.1821 83.2506 13.1173 83.4538L13.0755 83.67C13.0755 83.6202 13.0755 83.5684 13.0755 83.5208C13.0755 83.3414 13.088 83.1771 13.0985 83.0323C13.0985 82.9501 13.1131 82.8745 13.1215 82.8053C13.278 82.7002 13.4189 82.5721 13.5397 82.4249C13.5872 82.3551 13.6193 82.2753 13.6337 82.1913C13.6482 82.1073 13.6446 82.021 13.6233 81.9385C13.6107 81.9012 13.5905 81.8671 13.5642 81.8385C13.5379 81.8099 13.5059 81.7873 13.4706 81.7724C13.4352 81.7575 13.3971 81.7505 13.3589 81.752C13.3207 81.7534 13.2833 81.7632 13.249 81.7807C13.0399 81.8888 12.9918 82.3146 13.0253 82.5221C13.0253 82.5416 13.1068 82.8183 13.1089 82.8161C13.1089 82.8831 13.0922 82.9566 13.0838 83.0323C13.0692 83.1771 13.0546 83.3436 13.0504 83.523C13.0441 83.7169 13.049 83.9111 13.065 84.1044C13.0802 84.3235 13.1152 84.5406 13.1696 84.7529L13.0169 84.5216C12.8831 84.3617 12.5319 84.1347 12.3207 84.2255C12.286 84.2421 12.2551 84.266 12.23 84.2956C12.2048 84.3253 12.1859 84.36 12.1745 84.3977C12.1631 84.4353 12.1594 84.4751 12.1637 84.5143C12.168 84.5535 12.1801 84.5913 12.1994 84.6254C12.2482 84.6941 12.3109 84.7509 12.3831 84.792C12.4553 84.8331 12.5353 84.8574 12.6176 84.8632Z" fill="#263238"/>
<path id="Vector_8" d="M16.5547 83.7478C16.5547 83.7478 16.6279 83.4711 16.6321 83.4538C16.6593 83.2376 16.5944 82.8204 16.3874 82.7167C16.3526 82.7008 16.315 82.6926 16.2769 82.6926C16.2389 82.6926 16.2013 82.7008 16.1664 82.7166C16.1316 82.7325 16.1004 82.7557 16.0747 82.7847C16.049 82.8138 16.0295 82.848 16.0173 82.8853C15.9989 82.9685 15.9981 83.0549 16.015 83.1385C16.032 83.2221 16.0663 83.3009 16.1156 83.3695C16.2434 83.517 16.3914 83.6444 16.5547 83.7478Z" fill="#263238"/>
<path id="Vector_9" d="M121.816 83.657C122.002 83.707 122.193 83.7288 122.385 83.7218C122.385 83.7218 122.297 83.4495 122.291 83.4322C122.201 83.2419 121.921 82.9242 121.695 82.9566C121.658 82.9644 121.623 82.9799 121.593 83.0021C121.562 83.0244 121.536 83.0529 121.517 83.0859C121.497 83.119 121.484 83.1558 121.479 83.1942C121.474 83.2325 121.476 83.2716 121.486 83.309C121.514 83.3877 121.558 83.4595 121.615 83.5195C121.672 83.5794 121.741 83.6263 121.816 83.657Z" fill="#263238"/>
<path id="Vector_10" d="M124.547 86.9621C124.696 87.0655 124.86 87.1442 125.032 87.1955C125.013 87.2777 124.999 87.3598 124.978 87.4376C124.957 87.5155 124.953 87.5436 124.936 87.5954C124.919 87.6473 124.902 87.7014 124.886 87.7511C124.852 87.8505 124.817 87.9521 124.781 88.0451L124.731 88.1769H124.865L124.896 88.0904C124.932 87.9932 124.963 87.8937 124.999 87.7878C125.013 87.7359 125.028 87.6841 125.045 87.63C125.061 87.576 125.07 87.5219 125.084 87.4657C125.114 87.3382 125.139 87.2064 125.16 87.0723C125.33 87.1434 125.51 87.1864 125.693 87.1999C125.776 87.1987 125.858 87.1787 125.932 87.1414C126.007 87.104 126.073 87.0502 126.126 86.9837C126.147 86.9512 126.162 86.9144 126.169 86.8756C126.177 86.8368 126.176 86.7968 126.167 86.7584C126.158 86.7199 126.142 86.6837 126.119 86.6522C126.096 86.6206 126.067 86.5944 126.034 86.5752C125.824 86.4671 125.463 86.6681 125.319 86.8173C125.319 86.8173 125.216 86.947 125.168 87.0118C125.178 86.9318 125.191 86.8519 125.201 86.7719C125.231 86.5363 125.252 86.2963 125.275 86.0585C125.275 85.9851 125.289 85.9116 125.296 85.8424C125.472 85.9146 125.658 85.9591 125.847 85.9742C125.931 85.9731 126.012 85.9531 126.087 85.9158C126.162 85.8784 126.228 85.8246 126.28 85.7581C126.302 85.7258 126.317 85.6891 126.324 85.6505C126.331 85.6118 126.33 85.5721 126.322 85.5337C126.313 85.4954 126.297 85.4594 126.274 85.4281C126.251 85.3967 126.222 85.3707 126.188 85.3517C125.979 85.2436 125.618 85.4425 125.473 85.5938C125.473 85.6046 125.329 85.7754 125.298 85.8208C125.314 85.6608 125.331 85.5009 125.354 85.3452C125.386 85.1336 125.431 84.9242 125.488 84.7184C125.665 84.7911 125.852 84.8363 126.042 84.8524C126.125 84.8512 126.207 84.8312 126.282 84.7939C126.356 84.7566 126.422 84.7027 126.475 84.6362C126.496 84.6039 126.511 84.5672 126.519 84.5286C126.526 84.4899 126.525 84.4502 126.516 84.4119C126.508 84.3736 126.491 84.3376 126.468 84.3062C126.445 84.2749 126.416 84.2488 126.383 84.2298C126.174 84.1196 125.812 84.3206 125.668 84.4698C125.655 84.4827 125.513 84.6665 125.49 84.7032C125.489 84.691 125.489 84.6787 125.49 84.6665C125.553 84.4613 125.633 84.2624 125.73 84.072C125.783 83.9683 125.839 83.8689 125.896 83.7759C126.06 83.866 126.236 83.9302 126.418 83.9661C126.501 83.9754 126.584 83.9658 126.662 83.9382C126.741 83.9106 126.812 83.8655 126.872 83.8062C126.897 83.7765 126.916 83.7417 126.927 83.7041C126.939 83.6664 126.942 83.6267 126.937 83.5876C126.933 83.5484 126.92 83.5107 126.901 83.4769C126.881 83.443 126.855 83.4138 126.824 83.3911C126.634 83.2593 126.249 83.4171 126.088 83.5511C126.088 83.5511 125.998 83.6397 125.939 83.7024L126.017 83.577C126.113 83.4257 126.211 83.296 126.297 83.1815L126.437 83.0042C126.623 83.0065 126.807 82.9795 126.985 82.9242C127.062 82.8929 127.131 82.8447 127.188 82.7832C127.245 82.7216 127.288 82.6481 127.315 82.5676C127.325 82.5294 127.326 82.4895 127.32 82.4507C127.313 82.4118 127.299 82.3748 127.278 82.3421C127.256 82.3095 127.228 82.2818 127.196 82.2611C127.164 82.2403 127.127 82.2269 127.089 82.2217C126.859 82.1958 126.59 82.5179 126.506 82.7124C126.506 82.7297 126.414 83.0042 126.418 83.0042C126.374 83.0539 126.328 83.1101 126.28 83.1707C126.19 83.2852 126.09 83.4128 125.99 83.5619C125.882 83.7207 125.782 83.8852 125.691 84.0548C125.59 84.2451 125.504 84.4439 125.436 84.6492C125.436 84.58 125.436 84.3855 125.436 84.3703C125.411 84.1542 125.239 83.7694 125.017 83.7219C124.98 83.7158 124.941 83.7179 124.904 83.7282C124.868 83.7384 124.833 83.7566 124.804 83.7815C124.774 83.8063 124.75 83.8374 124.733 83.8725C124.716 83.9077 124.706 83.9462 124.704 83.9856C124.707 84.0688 124.728 84.1502 124.764 84.2247C124.8 84.2992 124.851 84.365 124.913 84.4179C125.072 84.5251 125.246 84.6067 125.429 84.66C125.365 84.8725 125.314 85.0891 125.277 85.3085C125.256 85.4338 125.237 85.5635 125.22 85.6932C125.22 85.6327 125.22 85.5787 125.22 85.5722C125.193 85.356 125.024 84.9713 124.802 84.9237C124.764 84.9172 124.726 84.9191 124.689 84.9293C124.652 84.9394 124.617 84.9575 124.588 84.9825C124.558 85.0074 124.534 85.0386 124.517 85.0739C124.5 85.1092 124.49 85.1479 124.488 85.1874C124.491 85.2709 124.511 85.3527 124.547 85.4274C124.583 85.5021 124.634 85.5677 124.698 85.6197C124.851 85.7257 125.02 85.8067 125.197 85.8597L125.178 86.0088C125.151 86.2466 125.124 86.4844 125.093 86.7157C125.08 86.7978 125.066 86.8778 125.053 86.9599C125.053 86.9059 125.053 86.8605 125.053 86.854C125.028 86.6379 124.856 86.2531 124.635 86.2055C124.597 86.1994 124.559 86.2016 124.522 86.2118C124.485 86.2221 124.451 86.2403 124.421 86.2651C124.392 86.29 124.367 86.321 124.35 86.3562C124.333 86.3914 124.323 86.4299 124.321 86.4693C124.318 86.5641 124.336 86.6585 124.376 86.7443C124.415 86.8301 124.474 86.9048 124.547 86.9621Z" fill="#263238"/>
<path id="Vector_11" d="M121.954 84.8632C122.144 84.8621 122.333 84.8315 122.515 84.7724C122.571 84.9851 122.641 85.1938 122.724 85.3971C122.774 85.516 122.826 85.6327 122.883 85.7516L122.816 85.6521C122.68 85.49 122.331 85.2631 122.119 85.356C122.085 85.3724 122.054 85.396 122.029 85.4255C122.004 85.455 121.985 85.4895 121.973 85.527C121.962 85.5645 121.958 85.6041 121.962 85.6431C121.967 85.6822 121.979 85.7198 121.998 85.7537C122.046 85.8234 122.109 85.8813 122.181 85.9231C122.253 85.965 122.334 85.9898 122.416 85.9958C122.601 85.9969 122.784 85.9685 122.96 85.9115C122.983 85.9548 123.004 86.0002 123.025 86.0456C123.129 86.2617 123.234 86.4779 123.33 86.694C123.366 86.7697 123.395 86.8453 123.426 86.9102L123.368 86.8237C123.234 86.6638 122.885 86.4368 122.671 86.5298C122.637 86.5463 122.606 86.5701 122.581 86.5997C122.556 86.6292 122.538 86.6639 122.527 86.7013C122.515 86.7388 122.512 86.7783 122.516 86.8172C122.521 86.8562 122.533 86.8937 122.552 86.9275C122.6 86.9972 122.663 87.055 122.735 87.0969C122.807 87.1387 122.888 87.1636 122.97 87.1696C123.15 87.1717 123.328 87.144 123.499 87.0874C123.529 87.1653 123.56 87.2431 123.585 87.3209C123.61 87.3987 123.621 87.4225 123.633 87.4765L123.677 87.6365C123.7 87.7359 123.725 87.8526 123.746 87.9413C123.767 88.0299 123.773 88.0753 123.786 88.1423C123.752 88.0688 123.685 87.9261 123.677 87.911C123.568 87.7316 123.259 87.4506 123.033 87.509C122.996 87.5197 122.962 87.5384 122.933 87.5637C122.904 87.589 122.88 87.6205 122.863 87.656C122.846 87.6915 122.837 87.7302 122.836 87.7697C122.834 87.8092 122.841 87.8485 122.855 87.8851C122.889 87.9557 122.937 88.0182 122.996 88.0685C123.054 88.1187 123.123 88.1557 123.196 88.1769H123.932C123.93 88.1608 123.926 88.1449 123.922 88.1293C123.949 88.1164 124.102 88.0537 124.237 87.9759C124.318 88.0554 124.409 88.123 124.507 88.1769H124.716C124.716 88.0947 124.741 87.9931 124.741 87.9823C124.738 87.7962 124.689 87.614 124.599 87.4527C124.601 87.4319 124.601 87.4109 124.599 87.3901C124.595 87.3508 124.582 87.313 124.562 87.2792C124.543 87.2453 124.516 87.2162 124.485 87.1937C124.453 87.1712 124.418 87.1559 124.38 87.1488C124.342 87.1416 124.304 87.1428 124.267 87.1523C124.045 87.2128 123.905 87.6149 123.895 87.8267C123.895 87.8397 123.895 87.9759 123.907 88.0623C123.897 88.0126 123.886 87.9629 123.874 87.911C123.851 87.8116 123.826 87.71 123.796 87.6019C123.782 87.55 123.767 87.4981 123.75 87.4441C123.734 87.3901 123.715 87.3382 123.698 87.2841C123.654 87.1609 123.604 87.0356 123.55 86.9124C123.729 86.8756 123.902 86.8092 124.062 86.7157C124.13 86.6682 124.188 86.606 124.231 86.5332C124.274 86.4604 124.301 86.3788 124.311 86.2941C124.312 86.2547 124.305 86.2154 124.291 86.1789C124.276 86.1424 124.255 86.1095 124.227 86.0823C124.199 86.0551 124.166 86.0343 124.13 86.0213C124.094 86.0083 124.056 86.0033 124.018 86.0066C123.79 86.0304 123.6 86.4065 123.55 86.6141C123.55 86.627 123.533 86.7805 123.529 86.8648C123.495 86.7913 123.464 86.7157 123.428 86.6486C123.326 86.4325 123.219 86.2163 123.106 86.0131C123.075 85.9483 123.041 85.8834 123.008 85.8186C123.194 85.7792 123.373 85.7107 123.539 85.6154C123.608 85.5684 123.666 85.5063 123.709 85.4334C123.752 85.3606 123.779 85.2788 123.788 85.1939C123.789 85.1545 123.782 85.1152 123.768 85.0787C123.754 85.0422 123.732 85.0092 123.704 84.982C123.676 84.9549 123.644 84.9341 123.608 84.921C123.572 84.908 123.533 84.903 123.495 84.9064C123.267 84.9323 123.077 85.3085 123.027 85.516C123.027 85.5311 123.006 85.7516 123.004 85.8056C122.931 85.663 122.86 85.5203 122.795 85.3733C122.707 85.1792 122.632 84.9791 122.571 84.7745C122.755 84.733 122.932 84.6623 123.096 84.5649C123.165 84.5179 123.223 84.4558 123.266 84.3829C123.309 84.31 123.336 84.2282 123.345 84.1434C123.346 84.1039 123.339 84.0647 123.325 84.0281C123.31 83.9916 123.289 83.9587 123.261 83.9315C123.233 83.9043 123.2 83.8835 123.164 83.8705C123.128 83.8575 123.09 83.8525 123.052 83.8559C122.824 83.8818 122.634 84.2579 122.584 84.4654C122.584 84.4806 122.561 84.7183 122.558 84.7616C122.558 84.7486 122.558 84.7378 122.548 84.7248C122.491 84.5185 122.452 84.3072 122.431 84.0936C122.418 83.9748 122.412 83.8623 122.41 83.7521C122.595 83.7322 122.777 83.6849 122.949 83.6116C123.023 83.5719 123.087 83.5165 123.137 83.4489C123.188 83.3814 123.223 83.3035 123.242 83.2204C123.247 83.1813 123.244 83.1415 123.233 83.1037C123.223 83.0659 123.204 83.0308 123.18 83.0007C123.155 82.9706 123.125 82.9461 123.091 82.9288C123.056 82.9116 123.019 82.9019 122.981 82.9004C122.751 82.9004 122.512 83.2506 122.45 83.4538L122.408 83.67C122.408 83.6202 122.408 83.5684 122.408 83.5208C122.408 83.3414 122.408 83.1771 122.431 83.0323C122.431 82.9502 122.446 82.8745 122.452 82.8053C122.609 82.7014 122.75 82.5731 122.87 82.4249C122.918 82.3552 122.95 82.2756 122.965 82.1916C122.98 82.1075 122.977 82.0211 122.956 81.9385C122.943 81.9014 122.923 81.8676 122.896 81.8391C122.87 81.8107 122.838 81.7883 122.803 81.7734C122.767 81.7585 122.729 81.7515 122.691 81.7528C122.653 81.754 122.616 81.7636 122.581 81.7807C122.372 81.8888 122.324 82.3146 122.358 82.5222C122.358 82.5416 122.437 82.8183 122.441 82.8161C122.441 82.8831 122.423 82.9566 122.414 83.0323C122.402 83.1771 122.387 83.3436 122.383 83.523C122.377 83.7169 122.381 83.911 122.395 84.1044C122.413 84.3232 122.448 84.5402 122.5 84.7529C122.464 84.6946 122.358 84.5368 122.349 84.5216C122.213 84.3617 121.864 84.1347 121.653 84.2255C121.618 84.2421 121.588 84.266 121.562 84.2956C121.537 84.3253 121.518 84.3601 121.507 84.3977C121.496 84.4354 121.492 84.4751 121.496 84.5143C121.5 84.5535 121.513 84.5913 121.532 84.6254C121.581 84.6948 121.644 84.7522 121.717 84.7933C121.79 84.8344 121.871 84.8583 121.954 84.8632Z" fill="#263238"/>
<path id="Vector_12" d="M125.894 83.7478C125.894 83.7478 125.967 83.4711 125.969 83.4538C125.998 83.2376 125.933 82.8204 125.726 82.7167C125.691 82.7008 125.654 82.6926 125.616 82.6926C125.578 82.6926 125.54 82.7008 125.505 82.7166C125.47 82.7325 125.439 82.7557 125.414 82.7847C125.388 82.8138 125.368 82.848 125.356 82.8853C125.338 82.9685 125.337 83.0549 125.354 83.1385C125.371 83.2221 125.405 83.3009 125.454 83.3695C125.582 83.517 125.73 83.6444 125.894 83.7478Z" fill="#263238"/>
</g>
<g id="Trees">
<path id="Vector_13" d="M10.4765 30.7974C10.4765 30.7974 19.8291 31.7528 24.567 37.7469C24.567 37.7469 29.5747 30.8039 38.576 30.9465C40.774 28.2055 42.1737 24.8754 42.6119 21.3439C43.0502 17.8123 42.5091 14.2248 41.0515 10.9989C39.5939 7.773 37.2799 5.04154 34.379 3.12257C31.478 1.2036 28.1094 0.176083 24.6654 0.159654C21.2215 0.143226 17.8439 1.13857 14.9259 3.02978C12.0079 4.92099 9.66961 7.63025 8.18332 10.8421C6.69703 14.0539 6.12387 17.6362 6.5306 21.1717C6.93733 24.7073 8.3072 28.0506 10.4807 30.8125L10.4765 30.7974Z" fill="#619593"/>
<path id="Vector_14" opacity="0.4" d="M10.4765 30.7974C10.4765 30.7974 19.8291 31.7528 24.567 37.7469C24.567 37.7469 29.5747 30.8039 38.576 30.9465C40.774 28.2055 42.1737 24.8754 42.6119 21.3439C43.0502 17.8123 42.5091 14.2248 41.0515 10.9989C39.5939 7.773 37.2799 5.04154 34.379 3.12257C31.478 1.2036 28.1094 0.176083 24.6654 0.159654C21.2215 0.143226 17.8439 1.13857 14.9259 3.02978C12.0079 4.92099 9.66961 7.63025 8.18332 10.8421C6.69703 14.0539 6.12387 17.6362 6.5306 21.1717C6.93733 24.7073 8.3072 28.0506 10.4807 30.8125L10.4765 30.7974Z" fill="white"/>
<path id="Vector_15" d="M33.5725 19.9332C33.5725 19.9332 27.9814 21.3037 24.8953 25.9511L24.7196 19.1918L24.7322 19.2804C24.7322 19.2804 27.8894 13.4074 33.5725 11.6111C33.5725 11.6111 27.718 13.0464 24.6883 17.9575L24.2576 8.85721L24.1258 21.9003C21.1526 17.2291 15.7351 15.8478 15.7351 15.8478C20.5211 17.415 23.4484 22.0883 24.1175 23.2513L24.0736 29.9738C21.0899 25.3675 15.7351 24.0078 15.7351 24.0078C20.4061 25.5361 23.3083 30.0257 24.0652 31.3205L23.9418 88.2871H25.5205L25.1378 35.2438C26.1561 33.6507 29.0708 29.6712 33.5725 28.2489C33.5725 28.2489 28.2261 29.561 25.1044 33.9641L24.9308 27.2632C25.6982 25.9857 28.7091 21.4636 33.5725 19.9332Z" fill="#263238"/>
<path id="Vector_16" d="M33.5725 19.9332C33.5725 19.9332 27.9814 21.3037 24.8953 25.9511L24.7196 19.1918L24.7322 19.2804C24.7322 19.2804 27.8894 13.4074 33.5725 11.6111C33.5725 11.6111 27.718 13.0464 24.6883 17.9575L24.2576 8.85721L24.1258 21.9003C21.1526 17.2291 15.7351 15.8478 15.7351 15.8478C20.5211 17.415 23.4484 22.0883 24.1175 23.2513L24.0736 29.9738C21.0899 25.3675 15.7351 24.0078 15.7351 24.0078C20.4061 25.5361 23.3083 30.0257 24.0652 31.3205L23.9418 88.2871H25.5205L25.1378 35.2438C26.1561 33.6507 29.0708 29.6712 33.5725 28.2489C33.5725 28.2489 28.2261 29.561 25.1044 33.9641L24.9308 27.2632C25.6982 25.9857 28.7091 21.4636 33.5725 19.9332Z" fill="#263238"/>
<path id="Vector_17" d="M3.31525 61.7925C3.31525 61.7925 10.9386 62.5728 14.8151 67.4602C14.8151 67.4602 18.8986 61.7989 26.2314 61.9157C28.0228 59.6809 29.1633 56.966 29.5202 54.0871C29.8771 51.2082 29.4356 48.2837 28.2472 45.6541C27.0589 43.0245 25.1724 40.798 22.8076 39.2337C20.4427 37.6694 17.6967 36.8318 14.8892 36.8183C12.0817 36.8047 9.32828 37.6159 6.94943 39.1574C4.57057 40.6988 2.66417 42.9071 1.45216 45.5252C0.24015 48.1432 -0.22761 51.0633 0.103336 53.9455C0.434282 56.8277 1.55032 59.5535 3.32152 61.8054L3.31525 61.7925Z" fill="#619593"/>
<path id="Vector_18" opacity="0.4" d="M3.31525 61.7925C3.31525 61.7925 10.9386 62.5728 14.8151 67.4602C14.8151 67.4602 18.8986 61.7989 26.2314 61.9157C28.0228 59.6809 29.1633 56.966 29.5202 54.0871C29.8771 51.2082 29.4356 48.2837 28.2472 45.6541C27.0589 43.0245 25.1724 40.798 22.8076 39.2337C20.4427 37.6694 17.6967 36.8318 14.8892 36.8183C12.0817 36.8047 9.32828 37.6159 6.94943 39.1574C4.57057 40.6988 2.66417 42.9071 1.45216 45.5252C0.24015 48.1432 -0.22761 51.0633 0.103336 53.9455C0.434282 56.8277 1.55032 59.5535 3.32152 61.8054L3.31525 61.7925Z" fill="white"/>
<path id="Vector_19" d="M7.60156 56.248C11.4112 57.4952 13.776 61.1548 14.3928 62.2118L14.3384 88.2568H15.434L15.2688 65.4196C16.1052 64.1226 18.4763 60.8802 22.1458 59.7173C22.1458 59.7173 17.7863 60.7851 15.2458 64.3755L15.1037 58.9067C15.7309 57.867 18.1856 54.1836 22.15 52.9299C22.15 52.9299 17.5918 54.0475 15.0765 57.8367L14.9322 52.3247V52.3982C14.9322 52.3982 17.5061 47.6016 22.1458 46.1447C22.1458 46.1447 17.3744 47.3163 14.9008 51.3195L14.5517 43.9009L14.4429 54.5338C12.0196 50.7251 7.60156 49.6032 7.60156 49.6032C11.5032 50.8807 13.8909 54.6916 14.4367 55.6406L14.4011 61.1223C11.9673 57.3677 7.60156 56.248 7.60156 56.248Z" fill="#263238"/>
<path id="Vector_20" d="M7.60156 56.248C11.4112 57.4952 13.776 61.1548 14.3928 62.2118L14.3384 88.2568H15.434L15.2688 65.4196C16.1052 64.1226 18.4763 60.8802 22.1458 59.7173C22.1458 59.7173 17.7863 60.7851 15.2458 64.3755L15.1037 58.9067C15.7309 57.867 18.1856 54.1836 22.15 52.9299C22.15 52.9299 17.5918 54.0475 15.0765 57.8367L14.9322 52.3247V52.3982C14.9322 52.3982 17.5061 47.6016 22.1458 46.1447C22.1458 46.1447 17.3744 47.3163 14.9008 51.3195L14.5517 43.9009L14.4429 54.5338C12.0196 50.7251 7.60156 49.6032 7.60156 49.6032C11.5032 50.8807 13.8909 54.6916 14.4367 55.6406L14.4011 61.1223C11.9673 57.3677 7.60156 56.248 7.60156 56.248Z" fill="#263238"/>
<path id="Vector_21" d="M113.135 61.7924C113.135 61.7924 120.76 62.5728 124.624 67.4601C124.624 67.4601 128.708 61.7989 136.041 61.9156C137.833 59.6808 138.975 56.9654 139.332 54.0858C139.69 51.2063 139.249 48.2809 138.06 45.6504C136.872 43.0199 134.985 40.7926 132.62 39.2277C130.254 37.6628 127.508 36.8249 124.7 36.8114C121.891 36.7978 119.137 37.6093 116.758 39.1514C114.378 40.6934 112.472 42.9025 111.26 45.5214C110.048 48.1404 109.58 51.0614 109.912 53.9443C110.244 56.8272 111.361 59.5534 113.133 61.8054L113.135 61.7924Z" fill="#619593"/>
<path id="Vector_22" opacity="0.4" d="M113.135 61.7924C113.135 61.7924 120.76 62.5728 124.624 67.4601C124.624 67.4601 128.708 61.7989 136.041 61.9156C137.833 59.6808 138.975 56.9654 139.332 54.0858C139.69 51.2063 139.249 48.2809 138.06 45.6504C136.872 43.0199 134.985 40.7926 132.62 39.2277C130.254 37.6628 127.508 36.8249 124.7 36.8114C121.891 36.7978 119.137 37.6093 116.758 39.1514C114.378 40.6934 112.472 42.9025 111.26 45.5214C110.048 48.1404 109.58 51.0614 109.912 53.9443C110.244 56.8272 111.361 59.5534 113.133 61.8054L113.135 61.7924Z" fill="white"/>
<path id="Vector_23" d="M117.423 56.2479C121.231 57.4952 123.598 61.1548 124.215 62.2118L124.158 88.2568H125.254L125.091 65.4109C125.927 64.114 128.296 60.8716 131.965 59.7087C131.965 59.7087 127.608 60.7765 125.065 64.3669L124.921 58.8981C125.548 57.8583 128.003 54.175 131.968 52.9212C131.968 52.9212 127.409 54.0388 124.894 57.8281L124.75 52.316L124.76 52.3895C124.76 52.3895 127.334 47.5994 131.968 46.136C131.968 46.136 127.198 47.3076 124.725 51.3109L124.376 43.8923L124.267 54.5251C121.841 50.7164 117.425 49.5946 117.425 49.5946C121.327 50.8721 123.715 54.6829 124.258 55.6319L124.223 61.1137C121.789 57.3676 117.423 56.2479 117.423 56.2479Z" fill="#263238"/>
<path id="Vector_24" d="M117.423 56.2479C121.231 57.4952 123.598 61.1548 124.215 62.2118L124.158 88.2568H125.254L125.091 65.4109C125.927 64.114 128.296 60.8716 131.965 59.7087C131.965 59.7087 127.608 60.7765 125.065 64.3669L124.921 58.8981C125.548 57.8583 128.003 54.175 131.968 52.9212C131.968 52.9212 127.409 54.0388 124.894 57.8281L124.75 52.316L124.76 52.3895C124.76 52.3895 127.334 47.5994 131.968 46.136C131.968 46.136 127.198 47.3076 124.725 51.3109L124.376 43.8923L124.267 54.5251C121.841 50.7164 117.425 49.5946 117.425 49.5946C121.327 50.8721 123.715 54.6829 124.258 55.6319L124.223 61.1137C121.789 57.3676 117.423 56.2479 117.423 56.2479Z" fill="#263238"/>
</g>
</g>
</svg>
