<svg width="44" height="44" viewBox="0 0 44 44" fill="none" xmlns="http://www.w3.org/2000/svg">
<g id="Group 3">
<rect id="Rectangle 7" width="44" height="44" rx="5" fill="#619593"/>
<path id="Vector" d="M3.92114 24.53C3.92041 24.2698 4.02137 24.0329 4.16828 23.8182C4.17078 23.8145 4.17325 23.8108 4.17568 23.8071C4.48204 23.3418 4.94587 23.117 5.45203 22.956C6.38506 22.6594 7.32071 22.371 8.25264 22.071C9.77511 21.5809 11.2941 21.0798 12.8185 20.596C13.0051 20.5367 13.1043 20.4385 13.1599 20.2663C13.6109 18.8677 14.0629 17.4694 14.5148 16.0711C14.896 14.8916 15.2796 13.713 15.6579 12.5326C15.861 11.8988 16.6325 11.358 17.2935 11.3287C18.224 11.2874 18.9863 11.9043 19.2518 12.7794C19.8835 14.8613 20.5872 16.9214 21.2624 18.9902C21.394 19.3933 21.548 19.7906 21.6539 20.2003C21.7168 20.4434 21.8393 20.5307 22.0736 20.6039C23.3307 20.997 24.5782 21.4208 25.8304 21.8294C27.1233 22.2513 28.4157 22.6745 29.7125 23.0839C30.3574 23.2874 30.9063 24.0735 30.9295 24.743C30.9611 25.6547 30.3585 26.4103 29.4897 26.6767C27.3985 27.3181 25.3261 28.0207 23.2463 28.699C22.8015 28.8441 22.3557 28.9864 21.9142 29.1411C21.8414 29.1667 21.7552 29.2391 21.7319 29.3088C20.9644 31.6111 20.1969 33.9135 19.4477 36.2218C19.2803 36.7377 19.2031 37.2847 18.8321 37.7146C18.5299 38.0647 18.1698 38.3078 17.6913 38.33C17.1545 38.3549 16.6468 38.3267 16.2026 37.936C15.8368 37.6144 15.6693 37.206 15.5267 36.773C15.2508 35.9359 14.9854 35.0953 14.715 34.2563C14.1973 32.6505 13.6757 31.046 13.1661 29.4377C13.1081 29.2548 13.016 29.1493 12.84 29.0928C11.4411 28.643 10.0432 28.1899 8.64458 27.7392C7.52705 27.3791 6.41041 27.0161 5.29032 26.6641C4.73204 26.4886 4.30382 26.1705 4.04914 25.6346C4.01496 25.5627 3.93747 25.5065 3.93477 25.4269C3.92493 25.1376 3.92201 24.8395 3.92114 24.53Z" fill="white"/>
<path id="Vector_2" d="M38.3366 13.3516C38.3366 13.3541 38.3353 13.3595 38.3343 13.3617C38.328 13.3758 38.306 13.3733 38.2967 13.3855C37.8518 13.972 37.1506 14.0507 36.5187 14.2599C35.4122 14.6263 34.3031 14.9855 33.1894 15.3292C32.9574 15.4007 32.8313 15.5109 32.7598 15.7422C32.4502 16.7426 32.1263 17.7384 31.8056 18.7353C31.657 19.1972 31.505 19.6581 31.3525 20.1188C31.1583 20.7058 30.8655 20.9112 30.2291 20.9109C29.699 20.9106 29.3815 20.6699 29.2024 20.1244C28.711 18.6274 28.2243 17.1287 27.7249 15.6343C27.6924 15.5371 27.5826 15.4286 27.4851 15.396C26.0014 14.8991 24.5135 14.4148 23.0271 13.9259C22.4103 13.723 22.2173 13.4484 22.2178 12.7859C22.2183 12.2663 22.4626 11.9555 23.0202 11.7729C24.4559 11.3029 25.8891 10.8246 27.3309 10.3737C27.6034 10.2885 27.7225 10.1679 27.8044 9.89246C28.0966 8.90974 28.4295 7.9391 28.7479 6.96419C28.8751 6.57465 29.0277 6.19164 29.1271 5.79521C29.1882 5.55142 29.284 5.33816 29.4203 5.15213C29.608 4.89594 29.9189 4.79257 30.2365 4.79209C30.5706 4.7916 30.9225 4.90158 31.1291 5.16416C31.2303 5.29283 31.3103 5.43707 31.3641 5.61211C31.7441 6.8497 32.2107 8.06264 32.5448 9.31161C32.7364 10.0279 33.0726 10.4027 33.804 10.5772C34.7773 10.8093 35.7211 11.1676 36.6737 11.4836C37.2615 11.6787 37.9086 11.7683 38.3085 12.3283C38.3117 12.3328 38.3183 12.3332 38.3218 12.329C38.3269 12.3231 38.3366 12.3267 38.3366 12.3345C38.3366 12.6632 38.3366 12.9926 38.3366 13.3516Z" fill="white"/>
<path id="Vector_3" d="M30.644 39.2079C30.6415 39.2079 30.636 39.2065 30.6338 39.2055C30.6198 39.1992 30.6221 39.1773 30.6098 39.1681C29.9987 38.7106 29.9477 37.9694 29.7079 37.3281C29.4961 36.7618 29.3385 36.1753 29.1359 35.6052C29.0968 35.4953 28.9756 35.3746 28.8654 35.3363C27.9374 35.0137 27.0032 34.7089 26.0708 34.399C25.4821 34.2034 25.2673 33.9163 25.2673 33.3242C25.2673 32.7364 25.4826 32.4513 26.0755 32.2541C27.0079 31.944 27.9422 31.6396 28.8701 31.3166C28.9794 31.2785 29.0985 31.1545 29.1369 31.0438C29.4587 30.1151 29.7619 29.1799 30.0726 28.2472C30.2692 27.657 30.5561 27.4455 31.1512 27.4456C31.7333 27.4456 32.0143 27.6588 32.2152 28.2624C32.505 29.1337 32.8068 30.0015 33.0701 30.8809C33.1561 31.1682 33.2958 31.3086 33.5765 31.3946C34.4636 31.6667 35.3378 31.9812 36.2261 32.2492C36.692 32.3898 37.0578 32.8215 37.028 33.3066C36.9911 33.9062 36.803 34.208 36.2327 34.3975C35.3008 34.7072 34.3669 35.0109 33.4398 35.3344C33.322 35.3755 33.1913 35.5031 33.15 35.6201C32.8487 36.4754 32.5501 37.3326 32.29 38.201C32.238 38.3746 32.1745 38.5347 32.0929 38.6809C31.8786 39.0649 31.4217 39.205 30.982 39.2073C30.8722 39.2079 30.7597 39.2079 30.644 39.2079Z" fill="white"/>
</g>
</svg>
