<svg width="78" height="78" viewBox="0 0 78 78" fill="none" xmlns="http://www.w3.org/2000/svg">
<g id="material-symbols:help">
<g id="Vector" filter="url(#filter0_d_4_141)">
<path d="M38.8791 53.5C39.725 53.5 40.4403 53.2076 41.0251 52.6228C41.61 52.0379 41.9016 51.3234 41.9 50.4792C41.9 49.6333 41.6084 48.918 41.0251 48.3332C40.4419 47.7483 39.7266 47.4567 38.8791 47.4583C38.0333 47.4583 37.3188 47.7508 36.7356 48.3356C36.1523 48.9204 35.8599 49.635 35.8583 50.4792C35.8583 51.325 36.1507 52.0403 36.7356 52.6252C37.3204 53.21 38.0349 53.5016 38.8791 53.5ZM36.7041 44.1958H41.175C41.175 42.8667 41.3264 41.8195 41.6293 41.0542C41.9322 40.2889 42.7877 39.2417 44.1958 37.9125C45.243 36.8653 46.0687 35.868 46.6729 34.9207C47.2771 33.9733 47.5791 32.8359 47.5791 31.5083C47.5791 29.2528 46.7535 27.5208 45.1021 26.3125C43.4507 25.1042 41.4972 24.5 39.2416 24.5C36.9458 24.5 35.0834 25.1042 33.6543 26.3125C32.2253 27.5208 31.228 28.9708 30.6625 30.6625L34.65 32.2333C34.8514 31.5083 35.3049 30.7229 36.0106 29.8771C36.7162 29.0313 37.7933 28.6083 39.2416 28.6083C40.5305 28.6083 41.4972 28.9612 42.1416 29.6668C42.7861 30.3725 43.1083 31.1475 43.1083 31.9917C43.1083 32.7972 42.8666 33.5528 42.3833 34.2585C41.9 34.9642 41.2958 35.6183 40.5708 36.2208C38.7986 37.7917 37.7111 38.9799 37.3083 39.7854C36.9055 40.591 36.7041 42.0611 36.7041 44.1958ZM39 63.1667C35.6569 63.1667 32.5153 62.5327 29.575 61.2648C26.6347 59.9968 24.0771 58.2745 21.9021 56.0979C19.7271 53.9229 18.0056 51.3653 16.7376 48.425C15.4697 45.4847 14.8349 42.3431 14.8333 39C14.8333 35.657 15.4681 32.5153 16.7376 29.575C18.0072 26.6347 19.7287 24.0771 21.9021 21.9021C24.0771 19.7271 26.6347 18.0056 29.575 16.7377C32.5153 15.4697 35.6569 14.835 39 14.8333C42.343 14.8333 45.4847 15.4681 48.425 16.7377C51.3653 18.0072 53.9229 19.7287 56.0979 21.9021C58.2729 24.0771 59.9952 26.6347 61.2647 29.575C62.5343 32.5153 63.1683 35.657 63.1666 39C63.1666 42.3431 62.5319 45.4847 61.2623 48.425C59.9928 51.3653 58.2713 53.9229 56.0979 56.0979C53.9229 58.2729 51.3653 59.9952 48.425 61.2648C45.4847 62.5343 42.343 63.1683 39 63.1667Z" fill="#5D9390"/>
<path d="M35.3583 50.4792V50.4782C35.3602 49.5052 35.7028 48.6632 36.3815 47.9825C37.0608 47.3013 37.9035 46.9586 38.8782 46.9583C38.8785 46.9583 38.8788 46.9583 38.8791 46.9583V47.4583L35.3583 50.4792ZM35.3583 50.4792C35.3583 51.4543 35.7011 52.2978 36.382 52.9787M35.3583 50.4792L36.382 52.9787M39 62.6667H39.0002C42.2781 62.6683 45.3519 62.047 48.2268 60.8057C51.1114 59.5602 53.6157 57.873 55.7442 55.7445C55.7443 55.7445 55.7443 55.7444 55.7443 55.7444M39 62.6667L63.1666 39C63.1666 42.3431 62.5319 45.4847 61.2623 48.425C59.9928 51.3653 58.2713 53.9229 56.0979 56.0979L55.7443 55.7444M39 62.6667C35.722 62.6667 32.648 62.0454 29.773 60.8056C26.8884 59.5617 24.3842 57.8745 22.2557 55.7445L22.2556 55.7444C20.1272 53.6159 18.4407 51.1117 17.1968 48.227C15.957 45.352 15.3349 42.278 15.3333 39L39 62.6667ZM55.7443 55.7444C57.8712 53.6159 59.5577 51.1116 60.8033 48.2268C62.0446 45.3519 62.6666 42.2779 62.6666 39V38.9998C62.6682 35.7219 62.047 32.6481 60.8057 29.7732C59.5602 26.8885 57.8729 24.3843 55.7445 22.2558M55.7443 55.7444L55.7445 22.2558M22.2556 22.2556C22.2557 22.2556 22.2557 22.2556 22.2557 22.2555C24.3842 20.1271 26.8884 18.4407 29.773 17.1968C32.648 15.957 35.722 15.335 39 15.3333L21.9021 21.9021L22.2556 22.2556ZM22.2556 22.2556C20.1287 24.3841 18.4423 26.8885 17.1967 29.7732C15.9554 32.6481 15.3333 35.7219 15.3333 38.9998L22.2556 22.2556ZM55.7445 22.2558L56.0979 21.9021L55.7443 22.2556C55.7444 22.2557 55.7444 22.2557 55.7445 22.2558ZM55.7445 22.2558C53.616 20.1288 51.1116 18.4423 48.2268 17.1967C45.3519 15.9554 42.2781 15.3334 39.0002 15.3333L55.7445 22.2558ZM41.3787 52.9763C40.698 53.657 39.8548 53.9998 38.8801 54L41.3787 52.9763ZM41.3787 52.9763C42.0595 52.2955 42.4016 51.4528 42.4 50.4792L41.3787 52.9763ZM36.382 52.9787C37.0628 53.6595 37.9055 54.0016 38.8791 54L36.382 52.9787ZM36.2041 44.1958V44.6958H36.7041H41.175H41.675V44.1958C41.675 42.8957 41.8244 41.9199 42.0942 41.2382C42.3523 40.5862 43.1309 39.6053 44.539 38.2761L44.5443 38.2712L44.5494 38.2661C45.6147 37.2008 46.4657 36.1754 47.0945 35.1895C47.7585 34.1483 48.0791 32.9136 48.0791 31.5083C48.0791 29.1122 47.1919 27.2221 45.3973 25.909C43.6515 24.6315 41.5919 24 39.2416 24C36.8554 24 34.87 24.6298 33.3315 25.9307C31.8361 27.1951 30.7843 28.7211 30.1883 30.504L30.0379 30.9539L30.4792 31.1277L34.4667 32.6985L34.9832 32.902L35.1317 32.3672C35.3074 31.7347 35.7149 31.0119 36.3945 30.1974C36.9772 29.4989 37.8916 29.1083 39.2416 29.1083C40.4412 29.1083 41.2525 29.4346 41.7724 30.004C42.3447 30.6306 42.6083 31.2889 42.6083 31.9917C42.6083 32.69 42.4009 33.3481 41.9708 33.976C41.5161 34.6398 40.9443 35.2603 40.2512 35.8363L40.2451 35.8414L40.2392 35.8467C39.3455 36.6388 38.6167 37.3412 38.0572 37.9525C37.5026 38.5584 37.0934 39.0972 36.8611 39.5618C36.4003 40.4835 36.2041 42.0622 36.2041 44.1958Z" stroke="#5D9390"/>
</g>
</g>
<defs>
<filter id="filter0_d_4_141" x="0.833313" y="0.833344" width="76.3333" height="76.3333" filterUnits="userSpaceOnUse" color-interpolation-filters="sRGB">
<feFlood flood-opacity="0" result="BackgroundImageFix"/>
<feColorMatrix in="SourceAlpha" type="matrix" values="0 0 0 0 0 0 0 0 0 0 0 0 0 0 0 0 0 0 127 0" result="hardAlpha"/>
<feOffset/>
<feGaussianBlur stdDeviation="7"/>
<feComposite in2="hardAlpha" operator="out"/>
<feColorMatrix type="matrix" values="0 0 0 0 0.529412 0 0 0 0 0.709804 0 0 0 0 0.360784 0 0 0 0.1 0"/>
<feBlend mode="normal" in2="BackgroundImageFix" result="effect1_dropShadow_4_141"/>
<feBlend mode="normal" in="SourceGraphic" in2="effect1_dropShadow_4_141" result="shape"/>
</filter>
</defs>
</svg>
