<svg width="20" height="20" viewBox="0 0 20 20" fill="none" xmlns="http://www.w3.org/2000/svg">
<g id="pepicons-pop:reload">
<g id="Group">
<path id="Vector" d="M13.937 4.211C14.1562 4.36032 14.3071 4.5906 14.3565 4.85118C14.4059 5.11176 14.3498 5.3813 14.2005 5.6005C14.0512 5.8197 13.8209 5.97061 13.5603 6.02003C13.2997 6.06944 13.0302 6.01332 12.811 5.864C11.8878 5.23639 10.7811 4.93579 9.66719 5.0101C8.55332 5.0844 7.49635 5.52934 6.66467 6.27402C5.83298 7.0187 5.27444 8.02029 5.07801 9.11923C4.88158 10.2182 5.05857 11.3512 5.58077 12.3379C6.10298 13.3246 6.94037 14.1081 7.95953 14.5637C8.97869 15.0193 10.121 15.1207 11.2045 14.8518C12.288 14.5828 13.2503 13.9591 13.9381 13.0798C14.626 12.2005 14.9998 11.1164 15 10C15 9.73479 15.1054 9.48043 15.2929 9.29289C15.4804 9.10536 15.7348 9 16 9C16.2652 9 16.5196 9.10536 16.7071 9.29289C16.8946 9.48043 17 9.73479 17 10C16.9998 11.563 16.4764 13.0809 15.5134 14.312C14.5503 15.543 13.203 16.4164 11.686 16.7928C10.1691 17.1693 8.56973 17.0272 7.14286 16.3893C5.71599 15.7513 4.54368 14.6542 3.8127 13.2727C3.08173 11.8911 2.83415 10.3047 3.10941 8.76615C3.38466 7.22759 4.16693 5.82541 5.33155 4.78302C6.49618 3.74063 7.97617 3.118 9.53572 3.01434C11.0953 2.91067 12.6446 3.33193 13.937 4.211Z" fill="#1E1E1E"/>
<path id="Vector_2" d="M13.539 12.506C13.4284 12.5768 13.3049 12.6251 13.1756 12.6481C13.0463 12.6712 12.9137 12.6686 12.7854 12.6404C12.6571 12.6122 12.5356 12.559 12.4279 12.4839C12.3202 12.4088 12.2283 12.3131 12.1575 12.2025C12.0867 12.0919 12.0384 11.9684 12.0154 11.8391C11.9923 11.7098 11.9949 11.5772 12.0231 11.4489C12.0513 11.3206 12.1045 11.1991 12.1796 11.0914C12.2547 10.9837 12.3504 10.8918 12.461 10.821L15.943 8.594C16.1664 8.45576 16.4352 8.41096 16.6913 8.4693C16.9475 8.52764 17.1704 8.68443 17.3118 8.90577C17.4533 9.12712 17.502 9.39525 17.4474 9.65221C17.3928 9.90917 17.2393 10.1343 17.02 10.279L13.539 12.506Z" fill="#1E1E1E"/>
<path id="Vector_3" d="M18.903 12.41C19.0051 12.6511 19.0085 12.9227 18.9125 13.1664C18.8165 13.41 18.6288 13.6063 18.3897 13.713C18.1506 13.8197 17.8791 13.8284 17.6337 13.7371C17.3882 13.6459 17.1883 13.462 17.077 13.225L15.569 9.845C15.5125 9.72467 15.4805 9.59427 15.475 9.46143C15.4694 9.32859 15.4905 9.19599 15.5368 9.07137C15.5831 8.94675 15.6538 8.83262 15.7448 8.73566C15.8357 8.63869 15.9451 8.56084 16.0665 8.50665C16.1879 8.45246 16.3189 8.42303 16.4519 8.42007C16.5848 8.41711 16.7169 8.44069 16.8406 8.48942C16.9643 8.53815 17.0771 8.61106 17.1723 8.70388C17.2675 8.7967 17.3432 8.90757 17.395 9.03L18.903 12.41Z" fill="#1E1E1E"/>
</g>
</g>
</svg>
