<svg width="33" height="34" viewBox="0 0 33 34" fill="none" xmlns="http://www.w3.org/2000/svg">
<g id="radix-icons:accessibility" opacity="0.8">
<path id="Vector" fill-rule="evenodd" clip-rule="evenodd" d="M1.92938 17C1.92938 13.1356 3.46449 9.42956 6.19701 6.69704C8.92953 3.96453 12.6356 2.42941 16.5 2.42941C20.3643 2.42941 24.0704 3.96453 26.803 6.69704C29.5355 9.42956 31.0706 13.1356 31.0706 17C31.0706 20.8644 29.5355 24.5705 26.803 27.303C24.0704 30.0355 20.3643 31.5706 16.5 31.5706C12.6356 31.5706 8.92953 30.0355 6.19701 27.303C3.46449 24.5705 1.92938 20.8644 1.92938 17ZM16.5 4.51941C13.1899 4.51941 10.0154 5.83433 7.67487 8.1749C5.3343 10.5155 4.01938 13.69 4.01938 17C4.01938 20.3101 5.3343 23.4846 7.67487 25.8251C10.0154 28.1657 13.1899 29.4806 16.5 29.4806C19.81 29.4806 22.9845 28.1657 25.3251 25.8251C27.6657 23.4846 28.9806 20.3101 28.9806 17C28.9806 13.69 27.6657 10.5155 25.3251 8.1749C22.9845 5.83433 19.81 4.51941 16.5 4.51941ZM15.675 20.3C15.554 20.5794 13.9304 26.812 13.9304 26.812C13.8928 26.9516 13.8281 27.0823 13.74 27.1969C13.6519 27.3114 13.5422 27.4075 13.4169 27.4796C13.164 27.6253 12.8636 27.6645 12.5818 27.5886C12.4422 27.5511 12.3115 27.4864 12.1969 27.3983C12.0824 27.3102 11.9863 27.2004 11.9142 27.0752C11.7685 26.8222 11.7293 26.5218 11.8052 26.24C11.8052 26.24 13.7412 20.0206 13.7412 18.694V15.4622L9.43358 14.3072C9.29191 14.2719 9.15869 14.2087 9.04168 14.1214C8.92467 14.0341 8.82622 13.9244 8.75206 13.7986C8.6779 13.6728 8.62952 13.5335 8.60974 13.3889C8.58996 13.2442 8.59918 13.0971 8.63685 12.956C8.67452 12.815 8.7399 12.6828 8.82917 12.5673C8.91845 12.4518 9.02982 12.3552 9.15681 12.2831C9.2838 12.2111 9.42387 12.165 9.56883 12.1477C9.7138 12.1303 9.86077 12.142 10.0012 12.182C10.0012 12.182 13.64 13.4206 15.0612 13.4206H17.941C19.36 13.4206 22.9966 12.182 22.9966 12.182C23.2784 12.1062 23.5788 12.1454 23.8317 12.291C24.0846 12.4366 24.2693 12.6768 24.3452 12.9586C24.421 13.2404 24.3818 13.5408 24.2362 13.7938C24.0905 14.0467 23.8504 14.2314 23.5686 14.3072L19.2434 15.4666V18.694C19.2434 20.0206 21.1794 26.2334 21.1794 26.2334C21.2549 26.5152 21.2155 26.8155 21.0696 27.0682C20.9238 27.3209 20.6835 27.5054 20.4017 27.5809C20.1199 27.6565 19.8196 27.617 19.5669 27.4711C19.3142 27.3253 19.1297 27.085 19.0542 26.8032C19.0542 26.8032 17.424 20.5794 17.3118 20.3C17.2018 20.0206 16.83 20.0206 16.83 20.0206H16.1546C16.1546 20.0206 15.774 20.0206 15.675 20.3ZM16.5 11.764C17.1564 11.764 17.7859 11.5033 18.2501 11.0391C18.7142 10.5749 18.975 9.94542 18.975 9.28901C18.975 8.6326 18.7142 8.00308 18.2501 7.53892C17.7859 7.07477 17.1564 6.81401 16.5 6.81401C15.8436 6.81401 15.214 7.07477 14.7499 7.53892C14.2857 8.00308 14.025 8.6326 14.025 9.28901C14.025 9.94542 14.2857 10.5749 14.7499 11.0391C15.214 11.5033 15.8436 11.764 16.5 11.764Z" fill="black"/>
</g>
</svg>
