<svg width="24" height="24" viewBox="0 0 24 24" fill="none" xmlns="http://www.w3.org/2000/svg">
<g id="solar:download-outline">
<path id="Vector" fill-rule="evenodd" clip-rule="evenodd" d="M12 22.75C11.8011 22.75 11.6103 22.671 11.4697 22.5303C11.329 22.3897 11.25 22.1989 11.25 22L11.25 11.027L9.57 12.988C9.50592 13.0629 9.42772 13.1244 9.33986 13.169C9.25201 13.2136 9.15623 13.2405 9.05798 13.2481C8.95974 13.2557 8.86096 13.2439 8.76728 13.2134C8.6736 13.1828 8.58685 13.1341 8.512 13.07C8.43715 13.0059 8.37565 12.9277 8.33102 12.8399C8.28639 12.752 8.2595 12.6562 8.25188 12.558C8.24427 12.4597 8.25608 12.361 8.28664 12.2673C8.3172 12.1736 8.36592 12.0869 8.43 12.012L11.43 8.512C11.5004 8.42966 11.5878 8.36356 11.6862 8.31824C11.7846 8.27291 11.8917 8.24944 12 8.24944C12.1083 8.24944 12.2154 8.27291 12.3138 8.31824C12.4122 8.36356 12.4996 8.42966 12.57 8.512L15.57 12.012C15.6341 12.0869 15.6828 12.1736 15.7134 12.2673C15.7439 12.361 15.7557 12.4597 15.7481 12.558C15.7405 12.6562 15.7136 12.752 15.669 12.8399C15.6244 12.9277 15.5629 13.0059 15.488 13.07C15.4131 13.1341 15.3264 13.1828 15.2327 13.2134C15.139 13.2439 15.0403 13.2557 14.942 13.2481C14.8438 13.2405 14.748 13.2136 14.6601 13.169C14.5723 13.1244 14.4941 13.0629 14.43 12.988L12.75 11.028L12.75 22C12.75 22.1989 12.671 22.3897 12.5303 22.5303C12.3897 22.671 12.1989 22.75 12 22.75ZM17.004 15.748C16.8051 15.7491 16.6139 15.6711 16.4725 15.5312C16.3311 15.3913 16.2511 15.2009 16.25 15.002C16.2489 14.8031 16.3269 14.6119 16.4668 14.4705C16.6067 14.3291 16.7971 14.2491 16.996 14.248C18.089 14.242 18.864 14.214 19.453 14.106C20.019 14.001 20.348 13.834 20.591 13.591C20.868 13.314 21.048 12.925 21.147 12.191C21.248 11.436 21.25 10.435 21.25 9L21.25 8C21.25 6.564 21.248 5.563 21.147 4.808C21.048 4.074 20.867 3.686 20.591 3.408C20.314 3.132 19.926 2.952 19.191 2.853C18.437 2.751 17.435 2.75 16 2.75L8 2.75C6.565 2.75 5.564 2.751 4.808 2.853C4.074 2.952 3.686 3.132 3.409 3.409C3.132 3.686 2.952 4.074 2.853 4.808C2.752 5.563 2.75 6.564 2.75 8L2.75 9C2.75 10.435 2.752 11.436 2.853 12.192C2.952 12.925 3.133 13.314 3.409 13.591C3.653 13.834 3.981 14.001 4.547 14.106C5.136 14.214 5.911 14.242 7.004 14.248C7.10249 14.2485 7.19992 14.2684 7.29071 14.3066C7.3815 14.3448 7.46389 14.4005 7.53316 14.4705C7.60243 14.5405 7.65724 14.6235 7.69444 14.7147C7.73165 14.8059 7.75053 14.9035 7.75 15.002C7.74948 15.1005 7.72956 15.1979 7.69138 15.2887C7.6532 15.3795 7.59752 15.4619 7.5275 15.5312C7.45749 15.6004 7.37451 15.6552 7.28332 15.6924C7.19212 15.7296 7.09449 15.7485 6.996 15.748C5.914 15.742 5.013 15.716 4.276 15.581C3.518 15.441 2.873 15.176 2.348 14.651C1.746 14.05 1.488 13.291 1.366 12.391C1.25 11.525 1.25 10.422 1.25 9.055L1.25 7.945C1.25 6.577 1.25 5.475 1.366 4.608C1.488 3.708 1.746 2.95 2.348 2.348C2.95 1.746 3.708 1.488 4.608 1.366C5.475 1.25 6.578 1.25 7.945 1.25L16.055 1.25C17.422 1.25 18.525 1.25 19.392 1.366C20.292 1.487 21.05 1.746 21.652 2.348C22.254 2.95 22.512 3.708 22.633 4.608C22.75 5.475 22.75 6.578 22.75 7.945L22.75 9.055C22.75 10.422 22.75 11.525 22.633 12.392C22.513 13.292 22.253 14.05 21.652 14.652C21.127 15.176 20.482 15.442 19.724 15.581C18.987 15.716 18.086 15.742 17.004 15.748Z" fill="white"/>
</g>
</svg>
